HIERARCHY
ROOT Hips
{
	OFFSET -3.958830 18.904000 13.208200
	CHANNELS 6 Xposition Yposition Zposition Zrotation Yrotation Xrotation 
	JOINT LHipJoint
	{
		OFFSET 0.000000 0.000000 0.000000
		CHANNELS 3 Zrotation Yrotation Xrotation
		JOINT LeftUpLeg
		{
			OFFSET 1.800000 -1.400000 0.085000
			CHANNELS 3 Zrotation Yrotation Xrotation
			JOINT LeftLeg
			{
				OFFSET 2.215000 -6.000000 0.000000
				CHANNELS 3 Zrotation Yrotation Xrotation
				JOINT LeftFoot
				{
					OFFSET 2.500000 -6.900000 0.000000
					CHANNELS 3 Zrotation Yrotation Xrotation
					JOINT LeftToeBase
					{
						OFFSET 0.200000 -0.500000 1.950000
						CHANNELS 3 Zrotation Yrotation Xrotation
						End Site
						{
							OFFSET 0.000000 0.000000 0.000000
						}
					}
				}
			}
		}
	}
	JOINT RHipJoint
	{
		OFFSET 0.000000 0.000000 0.000000
		CHANNELS 3 Zrotation Yrotation Xrotation
		JOINT RightUpLeg
		{
			OFFSET -1.800000 -1.400000 0.085000
			CHANNELS 3 Zrotation Yrotation Xrotation
			JOINT RightLeg
			{
				OFFSET -2.215000 -6.000000 0.000000
				CHANNELS 3 Zrotation Yrotation Xrotation
				JOINT RightFoot
				{
					OFFSET -2.500000 -6.900000 0.000000
					CHANNELS 3 Zrotation Yrotation Xrotation
					JOINT RightToeBase
					{
						OFFSET -0.200000 -0.500000 1.950000
						CHANNELS 3 Zrotation Yrotation Xrotation
						End Site
						{
							OFFSET 0.000000 0.000000 0.000000
						}
					}
				}
			}
		}
	}
	JOINT LowerBack
	{
		OFFSET 0.000000 0.000000 0.000000
		CHANNELS 3 Zrotation Yrotation Xrotation
		JOINT Spine
		{
			OFFSET -0.087000 1.940000 -0.288900
			CHANNELS 3 Zrotation Yrotation Xrotation
			JOINT Spine1
			{
				OFFSET 0.000000 1.950000 0.060000
				CHANNELS 3 Zrotation Yrotation Xrotation
				JOINT Neck
				{
					OFFSET 0.000000 0.000000 0.000000
					CHANNELS 3 Zrotation Yrotation Xrotation
					JOINT Neck1
					{
						OFFSET 0.000000 1.600000 0.340000
						CHANNELS 3 Zrotation Yrotation Xrotation
						JOINT Head
						{
							OFFSET 0.000000 1.667000 -0.240000
							CHANNELS 3 Zrotation Yrotation Xrotation
							End Site
							{
								OFFSET 0.000000 0.000000 0.000000
							}
						}
					}
				}
				JOINT LeftShoulder
				{
					OFFSET 0.000000 0.000000 0.000000
					CHANNELS 3 Zrotation Yrotation Xrotation
					JOINT LeftArm
					{
						OFFSET 2.700000 1.550000 -0.730000
						CHANNELS 3 Zrotation Yrotation Xrotation
						JOINT LeftForeArm
						{
							OFFSET 5.450000 0.000000 0.000000
							CHANNELS 3 Zrotation Yrotation Xrotation
							JOINT LeftHand
							{
								OFFSET 3.450000 0.000000 0.000000
								CHANNELS 3 Zrotation Yrotation Xrotation
								JOINT LeftHandIndex1
								{
									OFFSET 0.750000 0.000000 0.000000
									CHANNELS 3 Zrotation Yrotation Xrotation
									End Site
									{
										OFFSET 0.000000 0.000000 0.000000
									}
								}
							}
						}
					}
				}
				JOINT RightShoulder
				{
					OFFSET 0.000000 0.000000 0.000000
					CHANNELS 3 Zrotation Yrotation Xrotation
					JOINT RightArm
					{
						OFFSET -2.700000 1.550000 -0.730000
						CHANNELS 3 Zrotation Yrotation Xrotation
						JOINT RightForeArm
						{
							OFFSET -5.450000 0.000000 0.000000
							CHANNELS 3 Zrotation Yrotation Xrotation
							JOINT RightHand
							{
								OFFSET -3.450000 0.000000 0.000000
								CHANNELS 3 Zrotation Yrotation Xrotation
								JOINT RightHandIndex1
								{
									OFFSET -0.750000 0.000000 0.000000
									CHANNELS 3 Zrotation Yrotation Xrotation
									End Site
									{
										OFFSET 0.000000 0.000000 0.000000
									}
								}
							}
						}
					}
				}
			}
		}
	}
}
MOTION
Frames: 7
Frame Time: 0.016667
2.692910 16.978170 -5.536380 -3.071140 -7.815627 -14.772632 -15.270499 13.544621 4.168254 25.849000 -0.176453 10.224798 -6.486149 5.771969 -5.220391 0.188351 6.878609 2.176644 0.630440 0.404470 0.823710 18.138069 -9.728749 2.208154 -16.400051 -2.946609 4.799058 4.263500 -5.146931 4.108828 -0.811459 -4.342302 2.753773 0.267040 -0.239260 0.111800 -3.225416 -4.761982 -8.239639 5.708202 -9.172527 25.007629 -14.875350 -2.067165 35.668769 6.506551 -7.285266 -31.742998 -30.909104 19.770318 28.935596 -8.741680 15.773370 -21.754570 -1.635583 -36.505132 13.902654 -12.598349 -16.956743 5.090066 -2.168866 12.280277 -1.225477 -4.005834 1.841802 0.734420 -0.192180 0.324350 -0.055740 -9.280030 34.613622 19.391567 9.279733 -3.786547 -2.030942 -1.422395 -11.292472 -0.562496 3.187585 -0.303378 -0.177010 0.215020 -0.114640 -0.390760 
2.624720 17.012880 -5.520650 -2.580031 -7.855478 -15.118824 -15.278359 13.550718 4.167150 26.157970 -0.140248 10.585218 -6.563701 5.872143 -4.871608 0.176503 6.934447 2.154266 0.644260 0.402000 0.822470 18.120822 -9.702081 2.283819 -16.606275 -3.023915 5.675063 4.354966 -5.167646 3.275691 -0.851743 -4.432321 2.749216 0.264250 -0.245970 0.109320 -3.192205 -4.766060 -8.294607 4.778337 -8.965034 25.411162 -14.903859 -1.714176 35.688289 6.643332 -7.127577 -32.209745 -30.955766 19.804939 29.604421 -8.491510 15.590260 -22.361760 -2.004223 -36.281108 13.478608 -11.813249 -17.261024 5.030496 -1.817419 12.019681 -1.152347 -4.024704 1.800132 0.777740 -0.203850 0.329330 -0.045610 -9.063935 34.783919 20.084882 10.032631 -5.111195 -1.151159 -1.920715 -8.700499 -0.378260 3.018340 -0.347505 -0.188740 0.223290 -0.113800 -0.406210 
2.498300 17.053090 -5.499500 -1.826177 -7.074717 -14.980456 -15.261388 13.546135 4.114672 26.990638 -0.119036 9.596273 -7.151851 6.143391 -3.317434 0.190381 6.886273 2.151163 0.666750 0.441450 0.846380 18.119868 -9.659900 2.422740 -16.990033 -3.100962 6.527579 4.869619 -5.117795 1.790075 -0.911894 -4.528375 2.723613 0.267470 -0.289800 0.088820 -3.229023 -4.715361 -8.399155 3.981767 -8.770215 25.230941 -15.204679 -1.304122 34.599463 6.738654 -6.554381 -32.552183 -30.474416 20.123163 32.079286 -8.296400 15.985380 -22.470380 -3.714365 -36.350442 13.456393 -10.518747 -17.771424 4.948425 -1.279362 11.578712 -0.932562 -4.037406 1.787507 0.780650 -0.235850 0.360050 -0.038510 -7.721010 35.023363 19.313034 10.143920 -4.381963 -2.512373 -1.962101 -12.624494 -0.377890 3.241999 -0.309317 -0.168810 0.211930 -0.152650 -0.404260 
2.341340 17.093560 -5.478620 -1.193411 -6.123721 -14.965740 -15.282002 13.568004 4.110296 28.911276 -0.132908 8.296132 -8.836334 6.838618 -0.551532 0.165302 7.084204 2.050980 0.655860 0.423390 0.843230 18.089238 -9.591591 2.488397 -16.998014 -3.253158 7.486967 4.864268 -5.103818 0.999155 -0.950501 -4.587956 2.705423 0.261110 -0.292130 0.068460 -3.172513 -4.796523 -8.506660 2.692630 -8.471361 25.397928 -14.658968 -1.114044 33.526275 6.473110 -6.242572 -32.960827 -30.680564 20.378197 33.595462 -7.201960 15.886350 -22.754440 -4.714103 -36.367827 13.522346 -10.188506 -18.989030 5.075827 -0.456732 11.134159 -0.752703 -4.073228 1.769089 0.815670 -0.258580 0.365480 -0.045940 -6.231718 35.089482 19.244300 9.897297 -5.269676 -3.201070 -1.981652 -14.244901 -0.309672 3.312485 -0.259450 -0.191910 0.234920 -0.141990 -0.414010 
2.191100 17.122950 -5.455460 -1.107689 -5.385548 -14.497383 -15.304227 13.460729 4.192288 32.003648 -0.398260 6.074079 -12.302868 8.183733 3.682665 0.165267 7.588772 1.821971 0.642190 0.406080 0.812810 18.097448 -9.442738 2.486141 -16.707838 -3.464858 7.907561 5.423078 -5.112789 0.426872 -0.971409 -4.627435 2.692406 0.259600 -0.257940 0.065430 -3.177857 -4.897888 -8.601910 2.556320 -8.831074 25.240881 -14.315418 -1.594765 31.726443 6.086796 -6.144918 -32.921905 -31.562033 21.077682 33.896960 -5.522580 15.923110 -22.153520 -6.490025 -35.908999 13.638668 -10.866476 -20.277338 5.458497 0.358156 10.363620 -0.541824 -4.084480 1.842887 0.825830 -0.255800 0.351520 -0.038000 -3.760598 34.404990 19.200000 7.246281 -6.409757 -3.582025 -2.073279 -15.306077 -0.263099 3.368891 -0.230457 -0.210170 0.255010 -0.122970 -0.405990 
2.036750 17.146700 -5.436930 -0.605698 -5.503745 -13.885432 -15.338818 13.203324 4.390898 35.092591 -0.930449 3.972632 -17.216472 10.184122 8.573274 0.226687 8.433249 1.489012 0.611210 0.362160 0.756910 18.125882 -9.296453 2.395666 -17.159979 -3.606612 7.469254 6.475256 -5.206838 0.537035 -0.937636 -4.667787 2.694074 0.256820 -0.183050 0.052650 -3.194354 -4.883022 -8.672205 2.115774 -8.974280 24.858385 -14.302186 -1.593003 30.261086 5.646763 -6.587798 -32.407607 -32.428126 21.029855 31.882682 -3.933240 15.324840 -20.633920 -7.617490 -34.734689 12.847244 -11.625301 -21.694840 5.628504 1.321827 9.289312 -0.399566 -4.111447 1.942710 0.805960 -0.225140 0.292130 -0.019600 -1.582452 33.555017 20.222411 5.015469 -8.728870 -1.778719 -1.664090 -11.316113 -0.355733 3.150836 -0.255414 -0.245460 0.286040 -0.094780 -0.390440 
1.876170 17.169320 -5.396450 -0.348590 -5.745965 -12.205883 -15.344897 12.555584 4.972890 39.315260 -1.868903 1.077729 -24.851437 12.849915 12.448185 0.508378 9.512323 1.055679 0.658410 0.459640 0.698310 18.231458 -9.147148 2.265679 -17.220873 -3.609679 6.272470 7.337463 -5.167780 0.610935 -0.960051 -4.561298 2.750791 0.265320 -0.168970 0.043840 -3.387052 -4.462137 -8.903119 2.805635 -8.979412 24.192929 -13.673052 -1.736562 23.906480 4.760121 -6.987182 -31.576153 -35.796593 22.726951 32.960763 0.783410 14.549420 -20.021240 -12.188861 -32.779855 11.879679 -15.242396 -22.986189 5.953046 3.618768 7.784419 -0.093933 -3.960882 2.254674 0.789380 -0.273970 0.326270 0.046270 5.077334 32.555395 20.932760 -0.731706 -11.855458 -0.295272 -0.956992 -8.412874 -0.392891 3.009278 -0.286112 -0.179700 0.299270 -0.136180 -0.310970 
